<svg width="258" height="56" viewBox="0 0 258 56" fill="none" xmlns="http://www.w3.org/2000/svg">
<path d="M27.0929 53.2189C41.3948 53.2189 52.9826 41.6697 52.9826 27.4196C52.9826 13.1749 41.3948 1.62573 27.0929 1.62573C12.7945 1.62573 1.20325 13.1749 1.20325 27.4196C1.20325 41.6697 12.7945 53.2189 27.0929 53.2189Z" fill="#263238"/>
<path d="M23.1135 31.7205H32.6416L35.425 33.5181H22.693L16.979 51.1178C10.6654 48.6803 4.82187 43.0277 2.37199 36.6751C-0.241107 30.5204 -0.241138 22.7873 2.42872 16.6079C4.93183 10.2518 10.9439 4.51435 17.3427 2.15643C22.3773 0.0795471 29.1149 -0.13963 34.4546 1.49359C40.582 3.24171 46.367 7.61813 49.7323 13.3309C53.4932 19.5951 54.5487 27.5544 52.2638 34.706C50.8198 39.4501 47.8412 43.9928 43.7468 47.2433L36.7129 35.5668L46.5036 41.0056C46.5585 41.0056 46.5871 40.9454 46.5585 40.8889L33.7343 29.8575L50.3194 32.3798C50.3762 32.3798 50.3991 32.3534 50.3991 32.3251L50.2927 32.242L34.6532 26.7785L50.9047 22.8669C50.9598 22.8669 50.9598 22.8157 50.9314 22.7874L34.2612 23.8692L47.3143 14.0221C47.3427 13.9691 47.2291 13.9426 47.2007 13.9973L32.5387 21.4052L40.6334 7.17636C40.6334 7.15345 40.6334 7.0933 40.582 7.12328L30.0054 19.4891L32.0349 3.24173C32.0349 3.21161 31.9782 3.18517 31.9231 3.21161L27.0588 18.9889L22.7994 2.73969C22.771 2.7131 22.7126 2.68312 22.6859 2.73969L23.8585 19.5951L13.8142 6.56997C13.7804 6.53985 13.7557 6.57002 13.7273 6.59646L21.3253 21.0109L6.96306 13.1912C6.93638 13.1912 6.88146 13.2213 6.88146 13.2459L19.6524 23.6975L3.34946 21.9829C3.29099 22.013 3.29099 22.0624 3.34946 22.089L19.1557 26.697L3.43283 31.2997C3.4026 31.3228 3.4026 31.381 3.43283 31.4058L19.6524 29.5234L6.90806 40.309C6.88138 40.309 6.85313 40.3637 6.90806 40.3956L7.07835 40.3389L17.2859 35.0133L19.6826 31.2166H22.4057L20.5164 29.8857L26.8318 19.7911L23.1064 31.715L23.1135 31.7207" fill="white" fill-opacity="0.5"/>
<path d="M70.1404 45.0099H57.4172L67.6053 8.77319H93.6866L91.2012 17.3723H77.8909L76.1843 23.5411H89.4946L87.2505 31.4562H73.942L70.1404 45.0099Z" fill="white" fill-opacity="0.5"/>
<path d="M99.5834 45.0099H87.0076L94.4654 18.5371H107.041L99.5834 45.0099ZM107.724 16.0113H95.1484L97.1956 8.77319H109.771L107.724 16.0113Z" fill="white" fill-opacity="0.5"/>
<path d="M132.212 45.0098H119.879L120.755 42.0474C118.268 44.1349 115.735 45.6408 111.688 45.6408C107.592 45.6408 105.011 43.6965 105.011 39.5675C105.011 35.0037 106.815 28.2021 109.496 23.4421C111.445 19.8964 114.954 18.0511 119.098 18.0511C122.655 18.0511 125.288 19.6066 126.313 21.5473L129.824 8.77319H142.4L132.212 45.0098ZM122.754 26.4046C121.632 26.4046 120.512 26.7474 119.879 28.2993C118.951 30.5335 118.123 32.72 118.123 34.9047C118.123 35.9264 118.855 36.7995 120.072 36.7995C121.048 36.7995 121.681 36.5079 122.217 36.1703L124.754 27.4739C124.314 26.8411 123.533 26.4046 122.754 26.4046Z" fill="white" fill-opacity="0.5"/>
<path d="M167.724 33.4484H150.371C150.027 34.8554 149.688 35.8293 149.688 36.9446C149.688 37.4802 149.786 38.8394 151.54 38.8394C153.294 38.8394 154.075 38.1589 154.806 35.5853H167.139C165.579 43.1151 156.61 45.6869 151.102 45.6869C143.642 45.6869 137.841 44.6193 137.841 37.4801C137.841 33.5455 139.839 27.0356 142.473 23.5889C145.641 19.4599 151.15 17.908 156.222 17.908C164.02 17.908 169.088 19.5094 169.088 26.113C169.088 27.718 168.407 31.2619 167.724 33.4484ZM155.147 24.5611C153.587 24.5611 152.516 25.6287 151.833 28.2994H156.999C157.146 27.7656 157.341 26.9402 157.341 26.4541C157.341 24.9976 156.463 24.5611 155.147 24.5611Z" fill="white" fill-opacity="0.5"/>
<path d="M180.364 45.0099H167.787L177.975 8.77319H190.552L180.364 45.0099Z" fill="white" fill-opacity="0.5"/>
<path d="M196.981 45.0099H184.402L191.862 18.5371H204.439L196.981 45.0099ZM205.12 16.0113H192.545L194.592 8.77319H207.169L205.12 16.0113Z" fill="white" fill-opacity="0.5"/>
<path d="M227.732 18.5368L228.827 24.5111H219.201L216.373 34.5668C216.13 35.3427 215.933 36.3131 215.933 36.9459C215.933 38.1107 216.423 38.5014 218.128 38.5014H220.81L218.956 45.0095H207.745C204.039 45.0095 202.625 43.2119 202.625 40.4899C202.625 39.3763 202.772 38.1584 203.163 36.7992L209.987 12.6597H222.565L220.906 18.5368H227.732Z" fill="white" fill-opacity="0.5"/>
<path d="M57.1599 49.0797L60.2946 49.0754L58.2971 55.5924L55.1713 55.5938L57.1599 49.0786V49.0797Z" fill="white" fill-opacity="0.5"/>
<path d="M68.1017 49.0855L72.6875 49.0827L73.8636 53.4292H73.8956L75.2225 49.081L77.9438 49.0781L75.9321 55.581L71.5451 55.5969L70.2731 50.9536H70.2518L68.861 55.5881L66.1379 55.5895L68.1017 49.0867V49.0855Z" fill="white" fill-opacity="0.5"/>
<path d="M83.8878 49.0883L87.34 49.0869L87.9431 53.1824L91.1009 49.0833L94.2958 49.0791L89.0289 55.5838L85.197 55.5865L83.8878 49.0872V49.0883Z" fill="white" fill-opacity="0.5"/>
<path d="M100.306 49.0903L107.438 49.0847L107.035 50.4015L102.935 50.4057L102.538 51.742L106.382 51.7406L105.997 52.9956L102.155 52.997L101.757 54.2873L105.9 54.2831L105.483 55.6017L98.3124 55.6073L100.306 49.0903Z" fill="white" fill-opacity="0.5"/>
<path d="M130.936 50.6767L128.493 50.6781L128.977 49.0979L136.992 49.0908L136.509 50.6711L134.068 50.6738L132.571 55.5771L129.44 55.5813L130.936 50.6764V50.6767Z" fill="white" fill-opacity="0.5"/>
<path d="M143.478 49.0818L148.227 49.079L148.458 53.4272H148.477L151.309 49.0772L156.081 49.0715L154.099 55.5885L151.193 55.5914L152.683 50.6829H152.66L149.132 55.5931L146.104 55.5973L145.676 50.6888H145.644L144.156 55.5832L141.496 55.5847L143.478 49.0818Z" fill="white" fill-opacity="0.5"/>
<path d="M176.037 49.0856L180.619 49.0828L181.799 53.4293H181.829L183.156 49.0793L185.876 49.0779L183.885 55.5966L179.441 55.5839L178.207 50.9529H178.187L176.763 55.5856L174.041 55.5885L176.037 49.0856Z" fill="white" fill-opacity="0.5"/>
<path d="M193.393 50.6672L190.948 50.6687L191.432 49.0867L199.449 49.0811L198.967 50.6612L196.524 50.664L195.028 55.5831L191.894 55.5874L193.393 50.6665V50.6672Z" fill="white" fill-opacity="0.5"/>
<path d="M117.046 51.0593C116.977 50.9869 116.974 50.8631 117.002 50.7623C117.105 50.4318 117.52 50.2144 118.182 50.2144C118.572 50.213 119.172 50.2568 119.344 50.3929C119.526 50.5254 119.585 50.7252 119.521 50.9214H122.297C122.624 49.7583 121.889 49.009 118.755 49.0107C115.776 49.015 114.087 49.6506 113.653 51.0699C113.541 51.4411 113.527 51.8971 113.834 52.2047C114.602 52.9647 118.065 53.267 118.357 53.6771C118.416 53.7602 118.439 53.8591 118.404 53.9758C118.244 54.499 117.501 54.6333 116.851 54.6333C116.438 54.6333 115.902 54.5449 115.748 54.3752C115.602 54.2038 115.602 53.9422 115.686 53.7743L112.78 53.78C112.487 54.7892 112.363 55.8391 116.404 55.8373C119.792 55.8331 121.345 55.0066 121.735 53.7216C121.928 53.0924 121.736 52.7442 121.517 52.5197C120.765 51.7473 117.41 51.4627 117.046 51.0597" fill="white" fill-opacity="0.5"/>
<path d="M162.461 49.0921L169.593 49.0864L169.192 50.4033L165.09 50.406L164.693 51.7423L168.537 51.7409L168.152 52.9959L164.31 52.9973L163.912 54.2894L168.055 54.2865L167.638 55.6034L160.467 55.6105L162.461 49.0918V49.0921Z" fill="white" fill-opacity="0.5"/>
<path d="M244.71 18.5368L237.886 33.2058L238.081 18.5368H225.358L227.795 45.0095C227.483 46.5597 226.969 47.4328 225.993 47.8641C224.925 48.3378 222.511 48.2547 221.661 48.207L221.507 48.2156L219.502 55.4077L228.086 55.4162C233.156 55.4162 235.644 52.8762 239.25 47.243L257.581 18.5361H244.71" fill="#231F20"/>
<path d="M207.581 51.044C207.512 50.9698 207.51 50.846 207.537 50.7471C207.642 50.4148 208.055 50.1974 208.717 50.1974C209.107 50.1974 209.707 50.2415 209.879 50.3777C210.063 50.5085 210.122 50.7099 210.056 50.9061H212.832C213.161 49.7431 212.424 48.9918 209.29 48.9954C206.311 48.9982 204.622 49.6353 204.189 51.0547C204.076 51.4241 204.062 51.8818 204.369 52.1876C205.137 52.9494 208.6 53.2517 208.892 53.6618C208.953 53.7431 208.974 53.8439 208.939 53.9605C208.781 54.4837 208.035 54.6162 207.388 54.618C206.973 54.618 206.437 54.5297 206.283 54.3582C206.139 54.1868 206.139 53.9269 206.221 53.759L203.315 53.7618C203.022 54.7729 202.898 55.8228 206.939 55.821C210.328 55.8154 211.88 54.9903 212.272 53.7035C212.464 53.0742 212.273 52.726 212.052 52.5033C211.3 51.7309 207.945 51.4463 207.581 51.0433" fill="white" fill-opacity="0.5"/>
<path d="M246.693 44.5229C245.434 44.5229 244.415 43.5066 244.415 42.2534C244.415 41.0002 245.434 39.9838 246.693 39.9838C247.951 39.9838 248.971 41.0002 248.971 42.2534C248.971 43.5066 247.951 44.5229 246.693 44.5229ZM246.693 39.4941C245.166 39.4941 243.924 40.7333 243.924 42.2534C243.924 43.7735 245.166 45.0125 246.693 45.0125C248.217 45.0125 249.461 43.7735 249.461 42.2534C249.461 40.7333 248.217 39.4941 246.693 39.4941Z" fill="#231F20"/>
<path d="M246.218 42.0631V41.2659H246.597C246.922 41.2588 247.277 41.28 247.277 41.6618C247.277 42.0436 246.922 42.0631 246.597 42.0631H246.218ZM247.802 41.6831C247.802 41.1334 247.481 40.824 246.793 40.824H245.718V43.6698H246.218V42.505H246.597L247.312 43.6698H247.862L247.115 42.4643C247.507 42.4167 247.802 42.1762 247.802 41.6831Z" fill="#231F20"/>
<path d="M244.691 18.6012L237.888 33.2206L238.083 18.6012H225.404L227.833 44.982C227.522 46.5268 227.01 47.3964 226.037 47.8277C224.973 48.2978 222.567 48.2148 221.719 48.1671L221.567 48.1756L219.568 55.3448L228.122 55.3519C233.176 55.3519 235.654 52.8225 239.248 47.2087L257.515 18.6008H244.691V18.6012Z" fill="white" fill-opacity="0.5"/>
</svg>
