<svg width="22" height="18" viewBox="0 0 22 18" fill="none" xmlns="http://www.w3.org/2000/svg">
<path d="M4.33325 17V2.40267C4.33316 2.09243 4.43611 1.79095 4.62594 1.54558C4.81578 1.30021 5.08173 1.12483 5.38205 1.04701C5.68236 0.969185 6.00002 0.993314 6.28513 1.11561C6.57024 1.2379 6.80666 1.45143 6.95725 1.72267L15.0426 16.2773C15.1932 16.5486 15.4296 16.7621 15.7147 16.8844C15.9998 17.0067 16.3175 17.0308 16.6178 16.953C16.9181 16.8752 17.1841 16.6998 17.3739 16.4544C17.5637 16.209 17.6667 15.9076 17.6666 15.5973V1" stroke="white" stroke-width="2" stroke-linecap="round" stroke-linejoin="round"/>
<path d="M1.66663 6.33325H20.3333" stroke="white" stroke-width="2" stroke-linecap="round" stroke-linejoin="round"/>
<path d="M1.66663 11.6667H20.3333" stroke="white" stroke-width="2" stroke-linecap="round" stroke-linejoin="round"/>
</svg>
